# xmcd CD database file
#
# Track frame offsets:
#	150
#	20528
#	48050
#
# Disc length: 960 seconds
#
# Revision: 0
# Processed by: cddbd v1.5.1PL0 Copyright (c) Steve Scherf et al.
# Submitted via: CDex 1.51
#
DISCID=1803be03
DTITLE=ジムノペディ - 夢ならクリムゾン
DYEAR=2005
DGENRE=JPop
TTITLE0=夢ならクリムゾン
TTITLE1=傘もささずに
TTITLE2=やっと、ひとくち〜クリムゾンバージョン〜
EXTD=YEAR: 2005
EXTT0=
EXTT1=
EXTT2=
PLAYORDER=
